PathFileType	4	(X/Y/Z)	C:/Users/beibeiliu/ov580/test_trc/User3\sequence.8_training_dense_right.trc
DataRate	CameraRate	NumFrames	NumMarkers	Units	OrigDataRate	OrigDataStartFrame	OrigNumFrames
120	120	22	19	mm	120	1	81
Frame#	Time	ThumbCMC			ThumbMCP			ThumbIP			ThumbTip			IndexMCP			IndexPIP			IndexTip			MiddleMCP			MiddlePIP			MiddleTip			RingMCP			RingPIP			RingTip			PinkyMCP			PinkyPIP			PinkyTip			BackHand1			BackHand2			BackHand3	
		X0	Y0	Z0	X1	Y1	Z1	X2	Y2	Z2	X3	Y3	Z3	X4	Y4	Z4	X5	Y5	Z5	X6	Y6	Z6	X7	Y7	Z7	X8	Y8	Z8	X9	Y9	Z9	X10	Y10	Z10	X11	Y11	Z11	X12	Y12	Z12	X13	Y13	Z13	X14	Y14	Z14	X15	Y15	Z15	X16	Y16	Z16	X17	Y17	Z17	X18	Y18	Z18	
0	0	113.814	33.8398	-0.372744	88.4359	24.7197	-21.6155	72.5846	16.6464	-46.2183	63.1204	8.66009	-64.8118	119.785	49.5718	-77.4218	108.791	42.9472	-105.697	98.2182	36.6138	-124.772	147.781	47.0844	-85.3189	138.942	42.931	-112.965	134.677	30.3944	-143.268	164.286	37.2995	-79.6075	163.513	33.6541	-106.364	163.776	23.3613	-133.062	183.285	23.663	-65.9521	190.584	17.8576	-87.39	196.86	9.95768	-106.69	170.345	46.6981	-28.3226	174.055	48.9289	2.77194	140.915	55.9654	-9.95117	
1	0.00833333	110.723	37.333	-6.42175	92.1103	26.7696	-22.3043	73.8199	18.7858	-49.088	60.6469	9.63381	-63.4526	119.529	51.2075	-78.7805	106.833	46.3262	-106.534	101.287	35.0788	-129.658	144.176	50.3286	-85.183	137.905	44.335	-117.966	134.33	32.232	-146.259	161.922	41.3831	-82.6301	168.115	35.7811	-104.595	162.82	26.5322	-133.439	182.533	26.5881	-66.0234	191.174	20.7716	-89.3455	192.695	12.4269	-111.047	169.452	49.3942	-29.3147	173.371	51.1575	1.17915	139.703	60.3236	-14.3678	
2	0.0166667	110.297	39.7544	-2.12273	92.1905	28.8642	-25.8358	72.7249	20.8933	-49.1295	64.1587	12.1348	-66.7306	120.354	53.5001	-80.4537	107.518	49.3293	-104.015	103.276	38.3408	-128.063	144.27	52.6413	-91.3481	138.275	46.942	-118.574	135.005	33.2211	-148.398	165.429	43.0676	-82.4204	164.909	39.4139	-105.393	164.387	28.3684	-133.04	183.556	30.4344	-68.4132	191.262	22.7268	-87.7291	194.217	15.9532	-108.299	170.71	51.9679	-31.4797	176.72	53.7622	-2.73849	142.238	62.6191	-14.0228	
3	0.025	109.562	40.1044	-5.32741	90.5085	29.3131	-23.3195	73.7231	21.2922	-50.9479	62.2054	11.6893	-67.6958	118.882	54.6153	-78.6187	107.165	47.9559	-108.217	104.345	37.6462	-129.968	148.709	52.432	-89.8581	142.326	46.0422	-120.103	137.742	33.1032	-146.814	164.328	45.0225	-84.3473	166.337	39.4603	-109.998	163.245	28.8362	-134.006	183.636	30.5847	-67.7046	190.401	24.0998	-86.4782	195.743	14.651	-112.376	168.729	54.6663	-31.7121	175.436	52.0899	-0.368665	138.6	62.8003	-17.5333	
4	0.0333333	109.017	40.1691	-6.65757	92.2129	28.604	-24.7458	73.9885	21.0315	-49.5673	63.5931	11.2138	-68.7733	120.145	53.5549	-82.7472	107.87	48.8864	-105.618	104.899	36.6403	-129.113	144.797	52.8932	-86.331	140.397	45.1427	-119.755	135.323	34.6209	-145.55	163.952	42.6089	-79.6982	163.435	38.6239	-110.501	163.518	28.3451	-135.933	185.029	28.1723	-65.3725	191.675	22.8775	-91.2825	195.932	12.6798	-112.352	169.69	52.5766	-28.8297	179.008	52.4855	-0.882096	144.41	60.48	-14.2591	
5	0.0416667	110.443	37.9604	-7.84369	95.0117	26.6098	-25.6679	77.5659	18.3935	-45.8034	66.1017	9.65723	-65.5259	118.508	51.3457	-80.8363	112.755	44.8284	-108.552	99.8739	34.7001	-131.22	148.196	50.3669	-86.8396	144.604	44.6187	-116.81	136.452	33.5838	-144.047	163.872	41.7469	-83.1237	167.979	37.2502	-107.463	163.101	27.6965	-131.658	187.961	26.8735	-68.4395	191.344	22.718	-87.5422	199.849	11.9311	-113.161	174.263	49.4785	-31.9654	176.605	50.9813	-3.62119	144.491	59.2014	-18.4034	
6	0.05	113.614	35.8517	-7.74428	92.4286	26.1	-24.1473	73.4286	17.2089	-47.8921	63.0211	6.80123	-64.0183	121.116	48.3115	-82.0773	109.065	42.8575	-108.926	107.017	31.4343	-131.728	146.906	48.881	-88.388	143.949	42.318	-117.267	139.067	29.9549	-146.542	169.785	39.0424	-83.2328	171.233	34.4274	-107.641	169.601	24.7854	-132.033	186.796	25.4799	-65.5002	197.467	18.0371	-88.3352	202.963	9.24679	-112.033	172.029	50.2451	-29.5656	175.025	51.0351	-1.84124	142.819	57.7943	-18.716	
7	0.0583333	113.052	35.2191	-4.26771	93.2673	24.3983	-24.5676	74.87	14.6448	-46.089	62.0735	4.68853	-63.7343	120.367	43.3864	-83.4755	113.168	34.9004	-111.719	105.731	25.38	-134.787	150.819	42.2263	-91.0406	147.101	36.0367	-119.36	146.057	23.0765	-151.24	172.982	33.5316	-83.535	176.285	29.1988	-108.027	172.834	21.9012	-131.498	189.38	22.4034	-62.4983	198.355	16.9766	-82.8832	210.355	8.73303	-105.854	172.051	49.1096	-35.0966	176.022	52.1321	-1.38654	141.045	57.4065	-18.0161	
8	0.0666667	115.808	32.5076	-10.0988	93.7234	21.9699	-23.5341	76.7621	11.7765	-42.7855	60.9908	1.51376	-57.3137	123.145	33.3982	-85.7178	113.284	27.5761	-110.1	109.334	19.914	-130.733	153.594	35.191	-90.2166	151.128	27.5305	-121.378	148.273	19.1775	-145.561	172.644	28.9661	-78.9409	177.635	24.3329	-103.592	182.082	16.6329	-132.401	193.764	18.627	-61.6367	202.414	12.7065	-82.1685	217.412	5.59696	-97.5621	176.703	45.2733	-34.8111	178.946	50.7266	-6.23599	144.413	52.9974	-19.8564	
9	0.075	114.353	33.3799	-7.09771	94.081	20.1387	-24.5765	75.0575	11.2972	-41.9225	58.2287	2.31804	-56.3413	126.942	25.7203	-86.9566	114.291	19.449	-106.56	109.828	11.3504	-133.207	152.785	28.6167	-93.5189	154.124	20.7453	-121.055	152.003	14.6897	-146.522	176.986	23.1246	-78.3988	181.721	19.0923	-101.997	188.134	13.7383	-128.571	198.767	14.2031	-59.0731	208.247	9.00037	-77.4488	220.799	6.14236	-95.2287	172.03	40.8035	-33.9115	178.708	49.3949	-9.62128	146.674	51.8407	-22.8135	
10	0.0833333	118.465	31.0752	-12.9002	94.2542	19.8704	-28.5021	73.0869	10.3432	-43.6004	58.1674	1.81876	-56.8792	127.757	20.7259	-84.4267	115.866	12.6088	-111.32	115.564	7.69155	-132.212	158.479	22.4951	-93.5102	160.692	17.411	-117.85	159.482	11.0857	-147.397	182.734	18.4532	-81.9893	188.042	15.3895	-101.874	195.09	11.6388	-126.926	202.564	10.0961	-58.2442	212.329	5.1947	-75.3638	228.964	3.41518	-93.9665	173.975	39.2757	-34.9293	178.483	51.9605	-9.61047	146.673	47.3975	-25.4064	
11	0.0916667	119.858	29.4639	-10.607	103.146	16.7976	-29.6875	76.7668	8.53802	-49.1405	58.2612	2.45401	-59.1596	129.188	17.6697	-87.9522	121.818	11.7437	-112.846	116.039	6.73931	-136.202	159.82	22.6099	-91.3643	164.018	19.0833	-120.801	162.043	15.5965	-149.752	185.895	18.1695	-82.1142	193.744	15.1453	-101.986	200.191	12.7744	-129.58	203.811	9.09858	-63.9921	219.731	4.23087	-77.1271	235.432	1.97582	-90.5551	179.422	36.0963	-41.3566	180.256	49.2669	-12.7003	145.509	44.2125	-31.6858	
12	0.1	119.119	27.9851	-13.829	103.916	15.3915	-32.255	81.6283	7.98428	-47.2746	63.6553	2.45078	-59.0871	130.449	19.1578	-91.8254	124.651	13.4572	-114.748	116.427	10.3255	-133.831	162.477	24.6744	-97.5609	169.118	21.0497	-124.277	168.878	19.5091	-151.225	187.393	18.9026	-84.9568	198.716	17.2115	-106.111	202.032	16.9288	-130.672	208.461	10.113	-63.7043	220.079	4.75004	-78.0076	235.851	2.93825	-93.0856	179.185	38.2501	-42.2649	181.121	47.5718	-14.3978	147.241	46.4094	-30.4673	
13	0.108333	123.861	24.9514	-18.5634	103.592	13.2616	-34.7996	83.5365	6.68268	-52.0685	65.2105	0.948683	-60.182	135.922	17.6195	-91.4649	127.118	13.8437	-116.635	118.241	11.2612	-141.615	168.545	23.8224	-94.1541	170.207	21.8079	-121.631	172.403	21.2949	-154.738	191.704	17.8416	-86.5207	194.081	16.237	-106.685	205.12	16.1784	-127.721	209.155	8.74982	-61.3477	223.762	2.55934	-79.0337	234.603	2.02639	-92.1361	179.371	36.895	-40.5071	182.032	46.4544	-17.0045	147.285	45.1689	-32.1292	
14	0.116667	121.459	23.9112	-20.7837	100.672	13.343	-34.5126	82.1045	5.59341	-53.7856	61.7786	-0.0665319	-67.3617	132.827	18.4343	-96.7454	126.778	12.9698	-121.058	117.914	11.2367	-140.988	164.555	23.1515	-98.5455	170.932	21.6602	-122.699	171.584	22.1271	-155.325	192.275	17.525	-86.4925	198.937	17.145	-110.578	206.437	17.007	-134.19	208.151	7.81361	-64.0043	224.322	3.67414	-75.8169	239.626	2.40909	-94.7022	182.731	35.4667	-43.0298	179.636	47.0709	-16.9265	148.279	41.36	-36.738	
15	0.125	119.635	24.6157	-24.2719	103.053	11.8534	-39.1232	81.5749	4.90248	-55.9811	65.6952	-2.30491	-68.2863	133.576	21.4119	-98.3226	125.105	15.9114	-123.588	118.14	14.006	-144.499	167.268	27.2957	-102.454	168.504	26.6299	-129.671	170.995	27.2157	-156.489	189.233	21.8437	-90.5965	202.192	21.6925	-107.153	210.831	21.632	-133.706	210.251	11.7669	-66.1282	225.565	6.84191	-78.6847	240.908	5.69165	-95.3732	184.067	39.2047	-43.3903	183.369	48.2594	-19.494	148.427	43.6079	-34.8939	
16	0.133333	124.333	22.2456	-24.7171	103.512	8.66089	-41.4071	85.9708	-1.91026	-62.0174	67.6213	-9.55972	-71.2741	135.996	18.7105	-100.625	126.762	12.3505	-123.387	124.499	7.33271	-149.042	167.991	27.4037	-100.321	171.09	24.8221	-128.13	178.901	22.5799	-156.8	190.741	21.8863	-86.8082	203.186	20.8748	-112.045	212.627	19.6519	-136.721	211.683	14.0266	-64.264	228.458	7.17111	-82.8161	244.531	3.9301	-97.993	182.637	40.9281	-44.26	182.423	51.1408	-17.3229	149.795	43.4095	-35.459	
17	0.141667	123.062	17.6395	-23.6138	108.338	0.00455363	-40.0728	86.3867	-9.43447	-52.693	70.9752	-16.4304	-61.3973	139.3	1.37029	-97.4079	131.021	-8.24628	-118.487	125.767	-16.1092	-139.109	172.099	7.85705	-100.495	174.314	0.689593	-127.348	174.553	-5.50792	-154.944	191.353	5.44868	-87.5091	205.377	-0.949465	-109.691	209.587	-6.66814	-131.086	212.16	0.54503	-65.6981	228.387	-9.3105	-79.346	244.984	-15.5945	-90.8566	185.469	32.0263	-44.3837	183.53	46.5454	-17.3	148.372	36.3333	-36.2971	
18	0.15	123.047	28.3839	-14.6544	104.947	12.8239	-32.915	81.851	7.80261	-45.1712	63.7195	5.50015	-55.0759	129.304	-5.61482	-85.0917	120.992	-16.6574	-104.561	115.011	-27.4816	-129.007	160.155	-12.5761	-93.0927	161.709	-25.1656	-111.513	162.253	-38.1633	-141.147	184.633	-19.0777	-74.3733	186.965	-30.6984	-95.0782	190.22	-44.5192	-119.118	198.646	-24.8834	-53.6797	207.513	-43.3248	-70.1774	217.48	-56.0334	-79.1909	182.583	15.7594	-42.1406	186.681	31.8119	-16.8844	156.26	32.6808	-34.2631	
19	0.158333	135.053	44.758	-16.2448	114.227	39.0871	-33.8286	93.4442	42.5508	-48.327	75.3336	49.5387	-60.6212	123.495	4.37642	-77.7247	109.097	-3.04343	-99.2343	98.2916	-9.03489	-118.628	146.09	-21.7927	-82.8859	136.346	-33.2944	-102.976	128.879	-45.6696	-129.69	157.854	-35.1646	-68.3996	152.006	-46.568	-85.9267	147.658	-64.2352	-107.191	166.605	-42.6072	-42.2524	165.098	-62.7818	-53.7229	164.301	-79.9721	-70.2698	177.541	-0.282563	-37.2368	191.763	12.4634	-14.444	166.48	30.359	-29.5587	
20	0.166667	156.254	49.9255	-17.959	141.916	61.5025	-34.9306	127.875	78.0883	-57.8894	116.684	83.872	-73.439	125.714	17.2962	-79.7286	111.897	22.5821	-101.453	99.2482	20.0023	-121.816	129.025	-7.91452	-77.3687	114.965	-17.0975	-97.1757	99.5545	-24.1045	-127.31	126.999	-27.5247	-62.5925	114.518	-37.4621	-80.0853	103.553	-51.9136	-94.5228	127.287	-42.4792	-33.8794	115.406	-54.5582	-41.267	107.107	-72.0625	-53.6276	165.835	-14.0424	-25.8839	183.006	-7.86886	-5.19412	169.512	23.9464	-31.75	
21	0.175	175.077	46.7426	-21.038	167.807	62.2637	-42.1537	170.957	81.934	-64.714	167.982	94.1605	-78.0706	134.002	31.9012	-86.8577	128.505	39.2361	-105.426	115.802	42.6528	-132.174	119.759	5.56959	-81.2479	105.978	7.03313	-105.439	90.4412	2.98393	-130.019	105.74	-9.47989	-63.1094	93.3299	-11.8772	-77.146	76.7279	-20.1019	-95.9898	96.6736	-17.4741	-36.4594	81.1682	-21.6908	-44.4517	67.3194	-34.2744	-54.0548	148.185	-8.92733	-26.6561	161.139	-13.3802	-2.41794	170.069	11.6575	-27.1341	
